{
	"asset": {
		"generator": "Khronos glTF Blender I/O v3.4.50",
		"version": "2.0"
	},
	"extensionsUsed": ["KHR_materials_specular", "KHR_materials_ior"],
	"scene": 0,
	"scenes": [
		{
			"name": "Scene",
			"nodes": [0, 1, 2]
		}
	],
	"nodes": [
		{
			"name": "Scene_root",
			"rotation": [-0.700498640537262, -0.5296331644058228, -0.17161765694618225, 0.4464725852012634],
			"translation": [0.0011967653408646584, 0.03699294850230217, 0]
		},
		{
			"name": "Scene_root.001",
			"rotation": [-0.700498640537262, -0.5296331644058228, -0.17161765694618225, 0.4464725852012634],
			"translation": [1.9739134311676025, 0.8618998527526855, -3.0882067680358887]
		},
		{
			"mesh": 0,
			"name": "Rocket",
			"rotation": [-0.0009219334460794926, 0, 0, 1],
			"scale": [0.1153189018368721, 0.3070971965789795, 0.3070971965789795],
			"translation": [0.004404105246067047, 0.3921530544757843, -0.9108132123947144]
		}
	],
	"materials": [
		{
			"doubleSided": true,
			"name": "Red.004",
			"pbrMetallicRoughness": {
				"baseColorFactor": [1, 0.02624097652733326, 0, 1],
				"metallicFactor": 0.4000000059604645,
				"roughnessFactor": 0.4000000059604645
			}
		},
		{
			"doubleSided": true,
			"name": "Body.003",
			"pbrMetallicRoughness": {
				"baseColorFactor": [1, 1, 1, 1],
				"metallicFactor": 0.20000000298023224,
				"roughnessFactor": 0.4000000059604645
			}
		},
		{
			"doubleSided": true,
			"extensions": {
				"KHR_materials_specular": {
					"specularColorFactor": [0, 0, 0]
				},
				"KHR_materials_ior": {
					"ior": 1.4499999284744263
				}
			},
			"name": "Glass",
			"pbrMetallicRoughness": {
				"baseColorFactor": [0.049395449459552765, 0.044227272272109985, 0.05222032219171524, 1],
				"roughnessFactor": 0.5
			}
		}
	],
	"meshes": [
		{
			"name": "Cube.002",
			"primitives": [
				{
					"attributes": {
						"COLOR_0": 0,
						"POSITION": 1,
						"TEXCOORD_0": 2,
						"NORMAL": 3
					},
					"indices": 4,
					"material": 0
				},
				{
					"attributes": {
						"COLOR_0": 5,
						"POSITION": 6,
						"TEXCOORD_0": 7,
						"NORMAL": 8
					},
					"indices": 9,
					"material": 1
				},
				{
					"attributes": {
						"COLOR_0": 10,
						"POSITION": 11,
						"TEXCOORD_0": 12,
						"NORMAL": 13
					},
					"indices": 14,
					"material": 2
				}
			]
		}
	],
	"accessors": [
		{
			"bufferView": 0,
			"componentType": 5123,
			"count": 714,
			"normalized": true,
			"type": "VEC4"
		},
		{
			"bufferView": 1,
			"componentType": 5126,
			"count": 714,
			"max": [10.811860084533691, 12.913629531860352, 7.058963775634766],
			"min": [-10.811860084533691, -2.282680034637451, -1.049293041229248],
			"type": "VEC3"
		},
		{
			"bufferView": 2,
			"componentType": 5126,
			"count": 714,
			"type": "VEC2"
		},
		{
			"bufferView": 3,
			"componentType": 5126,
			"count": 714,
			"type": "VEC3"
		},
		{
			"bufferView": 4,
			"componentType": 5123,
			"count": 2676,
			"type": "SCALAR"
		},
		{
			"bufferView": 5,
			"componentType": 5123,
			"count": 213,
			"normalized": true,
			"type": "VEC4"
		},
		{
			"bufferView": 6,
			"componentType": 5126,
			"count": 213,
			"max": [6.766205787658691, 11.07996940612793, 5.5456318855285645],
			"min": [-6.766204833984375, -0.8826537132263184, 0.464038610458374],
			"type": "VEC3"
		},
		{
			"bufferView": 7,
			"componentType": 5126,
			"count": 213,
			"type": "VEC2"
		},
		{
			"bufferView": 8,
			"componentType": 5126,
			"count": 213,
			"type": "VEC3"
		},
		{
			"bufferView": 9,
			"componentType": 5123,
			"count": 960,
			"type": "SCALAR"
		},
		{
			"bufferView": 10,
			"componentType": 5123,
			"count": 79,
			"normalized": true,
			"type": "VEC4"
		},
		{
			"bufferView": 11,
			"componentType": 5126,
			"count": 79,
			"max": [7.703533172607422, 9.306471824645996, 4.3424530029296875],
			"min": [6.191771984100342, 6.630695819854736, 1.66667902469635],
			"type": "VEC3"
		},
		{
			"bufferView": 12,
			"componentType": 5126,
			"count": 79,
			"type": "VEC2"
		},
		{
			"bufferView": 13,
			"componentType": 5126,
			"count": 79,
			"type": "VEC3"
		},
		{
			"bufferView": 14,
			"componentType": 5123,
			"count": 336,
			"type": "SCALAR"
		}
	],
	"bufferViews": [
		{
			"buffer": 0,
			"byteLength": 5712,
			"byteOffset": 0,
			"target": 34962
		},
		{
			"buffer": 0,
			"byteLength": 8568,
			"byteOffset": 5712,
			"target": 34962
		},
		{
			"buffer": 0,
			"byteLength": 5712,
			"byteOffset": 14280,
			"target": 34962
		},
		{
			"buffer": 0,
			"byteLength": 8568,
			"byteOffset": 19992,
			"target": 34962
		},
		{
			"buffer": 0,
			"byteLength": 5352,
			"byteOffset": 28560,
			"target": 34963
		},
		{
			"buffer": 0,
			"byteLength": 1704,
			"byteOffset": 33912,
			"target": 34962
		},
		{
			"buffer": 0,
			"byteLength": 2556,
			"byteOffset": 35616,
			"target": 34962
		},
		{
			"buffer": 0,
			"byteLength": 1704,
			"byteOffset": 38172,
			"target": 34962
		},
		{
			"buffer": 0,
			"byteLength": 2556,
			"byteOffset": 39876,
			"target": 34962
		},
		{
			"buffer": 0,
			"byteLength": 1920,
			"byteOffset": 42432,
			"target": 34963
		},
		{
			"buffer": 0,
			"byteLength": 632,
			"byteOffset": 44352,
			"target": 34962
		},
		{
			"buffer": 0,
			"byteLength": 948,
			"byteOffset": 44984,
			"target": 34962
		},
		{
			"buffer": 0,
			"byteLength": 632,
			"byteOffset": 45932,
			"target": 34962
		},
		{
			"buffer": 0,
			"byteLength": 948,
			"byteOffset": 46564,
			"target": 34962
		},
		{
			"buffer": 0,
			"byteLength": 672,
			"byteOffset": 47512,
			"target": 34963
		}
	],
	"buffers": [
		{
			"byteLength": 48184,
			"uri": "data:application/octet-stream;base64,"
		}
	]
}
